<svg xmlns="http://www.w3.org/2000/svg" viewBox="0 0 31 26" width="31" height="26">
	<style>
		tspan { white-space:pre }
		.shp0 { fill: #ffffff } 
	</style>
	<g id="Web 1920 – 1">
		<g id="right">
			<path id="Path 3744" class="shp0" d="M19.12 0.65C18.64 0.17 17.85 0.17 17.37 0.65C16.88 1.14 16.88 1.92 17.37 2.41L26.77 11.81L1.79 11.81C1.1 11.81 0.55 12.36 0.55 13.05C0.55 13.74 1.1 14.3 1.79 14.3L26.75 14.3L17.35 23.7C17.12 23.93 16.99 24.24 16.99 24.57C16.99 24.9 17.12 25.22 17.35 25.45C17.59 25.69 17.91 25.82 18.24 25.81C18.57 25.81 18.89 25.68 19.12 25.45L30.64 13.94C30.87 13.7 31 13.38 31 13.05C31 12.72 30.87 12.4 30.64 12.17L19.12 0.65Z" />
		</g>
	</g>
</svg>