<svg xmlns="http://www.w3.org/2000/svg" viewBox="0 0 36 42" width="36" height="42">
	<style>
		tspan { white-space:pre }
		.shp0 { fill: #1574f6 } 
	</style>
	<g id="Web 1920 – 1">
		<g id="ok">
			<path id="Path 205" class="shp0" d="M35.69 20.62C35.69 27.1 33.11 33.34 28.51 37.95C26.26 40.2 23.28 41.48 20.11 41.56C19.6 41.56 22.05 41.57 14.6 41.57C6.62 41.57 0.13 35.08 0.13 27.1L0.13 7.16C0.13 6.51 0.66 5.98 1.3 5.98C1.41 5.98 1.49 5.98 1.61 5.94C1.94 6.07 4.86 6.03 6.83 8.89C8.11 10.59 8.02 12.58 8.02 13.81C8.02 18.25 9.94 22.47 13.28 25.4C16.9 28.57 22.56 25.97 22.56 21.19C22.56 15.88 22.76 14.66 21.84 12.56C21.01 10.69 19.97 9.88 18.58 8.61C18.1 8.23 18.69 8.34 8.93 8.34C7.65 6.05 5.24 4.32 2.36 3.97C2.48 2.86 3.08 1.79 4.11 1.1C5.81 0.27 3.91 0.45 16.84 0.45C20.12 0.45 23.19 1.72 25.51 4.04L34.05 12.58L34.7 13.7C35.3 15.92 35.69 17.97 35.69 20.62Z" />
		</g>
	</g>
</svg>