<svg xmlns="http://www.w3.org/2000/svg" viewBox="0 0 62 46" width="62" height="46">
	<style>
		tspan { white-space:pre }
		.shp0 { fill: #1574f6 } 
	</style>
	<g id="Web 1920 – 1">
		<g id="programming">
			<path id="Path 212" fill-rule="evenodd" class="shp0" d="M61.74 9.39L61.74 36.7C61.74 41.45 57.87 45.31 53.12 45.31L9.48 45.31C4.73 45.31 0.86 41.45 0.86 36.7L0.86 9.39C0.86 4.64 4.73 0.78 9.48 0.78L53.12 0.78C57.87 0.78 61.74 4.64 61.74 9.39ZM22.96 11.96C22.26 11.27 21.13 11.27 20.43 11.96L10.11 22.29C9.41 22.98 9.41 24.11 10.11 24.81L19.43 34.13C20.13 34.83 21.26 34.83 21.95 34.13C22.65 33.43 22.65 32.3 21.95 31.61L13.89 23.55L22.96 14.48C23.65 13.79 23.65 12.66 22.96 11.96ZM36.58 8.01C35.65 7.68 34.63 8.17 34.3 9.1L24.87 35.8C24.55 36.73 25.03 37.75 25.96 38.08C26.89 38.41 27.91 37.92 28.24 36.99L37.67 10.29C38 9.36 37.51 8.34 36.58 8.01ZM52.49 23.8C53.19 23.11 53.19 21.98 52.49 21.28L43.17 11.96C42.48 11.27 41.35 11.27 40.65 11.96C39.95 12.66 39.95 13.79 40.65 14.48L48.71 22.54L39.65 31.61C38.95 32.3 38.95 33.43 39.65 34.13C40.34 34.83 41.47 34.83 42.17 34.13L52.49 23.8Z" />
		</g>
	</g>
</svg>