<svg xmlns="http://www.w3.org/2000/svg" viewBox="0 0 32 26" width="32" height="26">
	<style>
		tspan { white-space:pre }
		.shp0 { fill: #075dd2 } 
	</style>
	<g id="Web 1920 – 1">
		<g id="right">
			<path id="Path 3745" class="shp0" d="M12.42 0.65C12.91 0.17 13.69 0.17 14.18 0.65C14.66 1.14 14.66 1.92 14.18 2.41L4.78 11.81L29.75 11.81C30.44 11.81 31 12.36 31 13.05C31 13.74 30.44 14.3 29.75 14.3L4.79 14.3L14.19 23.7C14.43 23.93 14.56 24.24 14.56 24.57C14.56 24.9 14.43 25.22 14.19 25.45C13.96 25.69 13.64 25.82 13.31 25.81C12.98 25.81 12.66 25.68 12.42 25.45L0.91 13.94C0.67 13.7 0.54 13.38 0.55 13.05C0.55 12.72 0.68 12.4 0.91 12.17L12.42 0.65Z" />
		</g>
	</g>
</svg>