<svg xmlns="http://www.w3.org/2000/svg" viewBox="0 0 32 35" width="32" height="35">
	<style>
		tspan { white-space:pre }
		.shp0 { fill: #1574f6 } 
	</style>
	<g id="Web 1920 – 1">
		<g id="vector">
			<g id="Group 315">
				<g id="Group 314">
					<path id="Path 210" class="shp0" d="M31.3 20.37L17.87 0.22L17.87 16.49C19.86 17.2 21.3 19.09 21.3 21.32C21.3 24.16 18.99 26.47 16.15 26.47C13.32 26.47 11.01 24.16 11.01 21.32C11.01 19.09 12.45 17.2 14.44 16.49L14.44 0.22L1 20.37C0.55 21.05 0.64 21.96 1.22 22.54C4.37 25.68 6.38 29.74 7.16 34.09C8.35 33.61 9.64 33.33 11.01 33.33L21.3 33.33C22.66 33.33 23.96 33.61 25.15 34.09C25.93 29.74 27.94 25.68 31.09 22.54C31.67 21.96 31.76 21.05 31.3 20.37Z" />
				</g>
			</g>
		</g>
	</g>
</svg>