<svg xmlns="http://www.w3.org/2000/svg" viewBox="0 0 41 53" width="41" height="53">
	<style>
		tspan { white-space:pre }
		.shp0 { fill: #1574f6 } 
	</style>
	<g id="Web 1920 – 1">
		<g id="rocket">
			<path id="Path 206" fill-rule="evenodd" class="shp0" d="M20.06 0.52C20.49 0.11 21.17 0.11 21.6 0.52C29.14 7.72 33.67 20.03 33.02 31.37C38.01 36.56 40.89 43.61 40.89 50.81C40.88 51.12 40.75 51.45 40.53 51.67C40.45 51.75 40.37 51.82 40.27 51.86C39.89 52.05 39.44 52.07 39.1 51.81L32.16 46.61L32.07 48.2C32.05 48.48 31.93 48.74 31.74 48.92C31.54 49.13 31.26 49.25 30.96 49.25L10.7 49.25C10.1 49.25 9.62 48.79 9.58 48.2L9.49 46.61L2.55 51.82C2.21 52.07 1.76 52.11 1.38 51.92C1 51.73 0.76 51.34 0.77 50.92C0.77 43.61 3.64 36.56 8.64 31.37C7.98 20.05 12.54 7.77 20.06 0.52ZM20.82 15.82C17.75 15.82 15.25 18.32 15.25 21.39C15.25 24.46 17.75 26.96 20.82 26.96C22.36 26.96 23.75 26.34 24.76 25.33C25.77 24.32 26.4 22.93 26.4 21.39C26.4 18.32 23.9 15.82 20.82 15.82Z" />
		</g>
	</g>
</svg>