<svg xmlns="http://www.w3.org/2000/svg" viewBox="0 0 59 65" width="59" height="65">
	<style>
		tspan { white-space:pre }
		.shp0 { fill: #1574f6 } 
	</style>
	<g id="Web 1920 – 1">
		<path id="secure" fill-rule="evenodd" class="shp0" d="M52.16 48.1C43.43 60.71 30.54 63.95 30 64.08C29.84 64.12 29.67 64.14 29.51 64.14C29.34 64.14 29.18 64.12 29.01 64.08C28.47 63.95 15.58 60.71 6.85 48.1C-1.9 35.46 1.51 10.07 1.66 8.99C1.78 8.17 2.37 7.49 3.18 7.27L28.95 0.1C29.31 0 29.7 0 30.07 0.1L55.84 7.27C56.64 7.49 57.24 8.17 57.35 8.99C57.5 10.07 60.91 35.46 52.16 48.1ZM46.12 20.86L43.97 18.7C43.57 18.31 43.04 18.08 42.48 18.08C41.93 18.08 41.4 18.31 41 18.7L27.07 32.64L19.84 25.41C19.02 24.59 17.69 24.59 16.87 25.41L14.72 27.57C14.32 27.96 14.1 28.49 14.1 29.05C14.1 29.6 14.32 30.14 14.72 30.53L25.58 41.4C25.99 41.81 26.53 42.01 27.07 42.01C27.6 42.01 28.14 41.81 28.55 41.4L46.12 23.82C46.94 23 46.94 21.67 46.12 20.86Z" />
	</g>
</svg>